<?xml version="1.0" encoding="UTF-8"?><svg id="Layer_2" xmlns="http://www.w3.org/2000/svg" viewBox="0 0 61.47 35.63"><g id="Layer_1-2"><line x1="17.56" y1="35.38" x2="17.56" y2=".25" style="fill:#fdfdfd; stroke:#fdfdfd; stroke-miterlimit:10; stroke-width:.5px;"/><line x1="61.47" y1="17.81" x2="52.69" y2="17.81" style="fill:#fdfdfd; stroke:#fdfdfd; stroke-miterlimit:10; stroke-width:.5px;"/><line y1="17.81" x2="8.78" y2="17.81" style="fill:#fdfdfd; stroke:#fdfdfd; stroke-miterlimit:10; stroke-width:.5px;"/><line x1="52.69" y1="17.81" x2="35.13" y2="35.38" style="fill:#fdfdfd; stroke:#fdfdfd; stroke-miterlimit:10; stroke-width:.5px;"/><line x1="35.13" y1=".25" x2="52.69" y2="17.81" style="fill:#fdfdfd; stroke:#fdfdfd; stroke-miterlimit:10; stroke-width:.5px;"/><line x1="8.78" y1=".25" x2="17.56" y2=".25" style="fill:#fdfdfd; stroke:#fdfdfd; stroke-miterlimit:10; stroke-width:.5px;"/><line x1="8.78" y1="35.38" x2="8.78" y2=".25" style="fill:#fdfdfd; stroke:#fdfdfd; stroke-miterlimit:10; stroke-width:.5px;"/><line x1="17.56" y1="35.38" x2="8.78" y2="35.38" style="fill:#fdfdfd; stroke:#fdfdfd; stroke-miterlimit:10; stroke-width:.5px;"/><line x1="17.56" y1=".25" x2="35.13" y2=".25" style="fill:#fdfdfd; stroke:#fdfdfd; stroke-miterlimit:10; stroke-width:.5px;"/><line x1="17.56" y1="35.38" x2="35.13" y2="35.38" style="fill:#fdfdfd; stroke:#fdfdfd; stroke-miterlimit:10; stroke-width:.5px;"/><path d="m23.66,27.58c.09.06.19.09.28.09.5,0,.88-.34,1.13-1.01.24-.67.36-2.06.36-4.16v-4.62c0-3.47.36-5.72,1.07-6.74.71-1.02,1.52-1.53,2.45-1.53.53,0,.98.16,1.34.49s.55.73.55,1.2-.12.79-.37.98-.48.29-.71.29-.44-.08-.65-.24c-.21-.16-.32-.38-.32-.67,0-.11.02-.22.06-.32.04-.1.1-.21.18-.31-.12-.03-.22-.05-.29-.05-.26,0-.51.12-.73.35-.23.23-.4.63-.54,1.18-.13.56-.2,1.93-.2,4.11v4.87c0,2.87-.34,4.83-1.03,5.89-.69,1.05-1.53,1.58-2.53,1.58-.56,0-1.01-.16-1.35-.47-.34-.31-.51-.72-.51-1.21,0-.33.11-.62.32-.85s.47-.35.77-.35c.25,0,.47.08.67.25.2.16.29.37.29.61,0,.11-.02.22-.06.33s-.1.21-.19.32Z" style="fill:#fdfdfd;"/></g></svg>